<svg width="24" height="24" viewBox="0 0 24 24" fill="none" xmlns="http://www.w3.org/2000/svg">
<path d="M5.63574 16.3643L9.41699 16.2363L9.99512 16.8555L4.97949 21.4951L5.03516 18.6885L2 18.7393L5.66992 15.3447L5.63574 16.3643ZM22 18.7393L18.9648 18.6885L19.0205 21.4951L14.0039 16.8555L14.583 16.2363L18.3643 16.3643L18.3291 15.3447L22 18.7393ZM11.6348 2.39062C11.8323 2.17954 12.1677 2.17954 12.3652 2.39062L14.1406 4.29102C14.2392 4.39647 14.3792 4.45409 14.5234 4.44922L17.1221 4.36133C17.4113 4.35155 17.6484 4.58872 17.6387 4.87793L17.5508 7.47754C17.5461 7.6216 17.6037 7.76092 17.709 7.85938L19.6094 9.63477C19.8207 9.83231 19.8205 10.1676 19.6094 10.3652L17.709 12.1416C17.6037 12.2402 17.5459 12.3793 17.5508 12.5234L17.6387 15.1221C17.6484 15.4113 17.4113 15.6484 17.1221 15.6387L14.5234 15.5508C14.3792 15.5459 14.2392 15.6045 14.1406 15.71L12.3652 17.6094C12.1676 17.8208 11.8324 17.8208 11.6348 17.6094L9.85938 15.71C9.76081 15.6045 9.62084 15.5459 9.47656 15.5508L6.87793 15.6387C6.58867 15.6484 6.35156 15.4113 6.36133 15.1221L6.44922 12.5234C6.45409 12.3793 6.39626 12.2402 6.29102 12.1416L4.39062 10.3652C4.17945 10.1676 4.1793 9.83231 4.39062 9.63477L6.29102 7.85938C6.39631 7.76092 6.45395 7.6216 6.44922 7.47754L6.36133 4.87793C6.35162 4.58872 6.58871 4.35155 6.87793 4.36133L9.47656 4.44922C9.62083 4.45409 9.76081 4.39647 9.85938 4.29102L11.6348 2.39062ZM11.5625 5.39844C9.86332 5.39844 8.65631 6.44147 8.66797 8.04688H10.1211C10.1094 7.19147 10.6719 6.64062 11.5508 6.64062C12.3828 6.64062 13.0038 7.1446 13.0039 7.92969C13.0039 8.64452 12.5586 9.14847 11.7031 10.0039L8.70312 12.8984V14H14.5977V12.7227H10.8242V12.6641L12.3359 11.1641C14 9.59379 14.4688 8.8203 14.4688 7.85938C14.4687 6.42975 13.2968 5.39844 11.5625 5.39844Z" fill="white"/>
</svg>
