<svg width="75" height="24" viewBox="0 0 75 24" fill="none" xmlns="http://www.w3.org/2000/svg">
<path d="M21.5335 7.85697L23.652 7.61563V12.7642L21.5335 13.0592V22.2838L15.5 22.9542V1.28714L21.5335 0.321777V7.85697Z" fill="#6F4E4E"/>
<path d="M48.2683 15.3921V20.6748L25.0996 23.2223V17.9396L48.2683 15.3921Z" fill="#6F4E4E"/>
<path d="M25.8232 8.84931L33.2244 8.04484V1.26048L40.1428 0.429199V7.26719L47.4903 6.46272V12.3353L38.2657 13.3812V9.01021L35.0478 9.35881V13.6761L25.8232 14.7219V8.84931Z" fill="#6F4E4E"/>
<path d="M57.6804 5.84588V4.80007L50.3866 5.63135V1.28722L54.7307 0.375488V1.28722L59.2894 0.375488V1.31404L63.7676 0.375488V8.87605L56.3664 9.68052V10.6995L64.3307 9.84141V13.8906L50.2793 15.3922L50.3329 6.65035L57.6804 5.84588Z" fill="#6F4E4E"/>
<path d="M51.2178 21.8548V16.4648L72.2412 14.1587V23.3028L66.1541 24V20.1922L51.2178 21.8548Z" fill="#6F4E4E"/>
<path d="M72.2142 3.99553L74.3326 3.75419V8.87598L72.2142 9.11732V13.1397L66.1807 13.8101V1.09944L72.2142 0V3.99553Z" fill="#6F4E4E"/>
<path d="M8.04469 1.47464V7.48135L5.68492 7.72269V0.509277L0 1.47464V22.5249L13.7296 20.9696V0.509277L8.04469 1.47464ZM11.0034 13.5104C10.4268 15.2981 9.01006 15.7003 9.01006 15.7003C10.0737 15.8344 10.3911 16.84 10.467 17.202C10.4849 17.278 10.4581 17.3584 10.3955 17.4076C8.74637 18.7707 7.50838 17.5864 7.50838 17.5864C6.92737 18.8422 5.6581 18.9361 5.2067 18.9272C5.10838 18.9272 5.02346 18.8556 5.00559 18.7573C4.76872 17.6087 5.62235 16.5808 5.62235 16.5808C4.2905 16.9339 3.12402 15.5484 2.76648 15.0657C2.69944 14.9718 2.71732 14.8467 2.8067 14.7752C4.29497 13.6266 5.9486 14.4087 5.9486 14.4087C5.22011 13.3227 5.84134 11.3473 6.09609 10.6501C6.14525 10.5205 6.30615 10.4713 6.41788 10.5562C8.70615 12.259 8.37989 13.9037 8.37989 13.9037C9.22011 13.126 10.3419 13.1752 10.8246 13.2422C10.9542 13.2601 11.0346 13.3897 10.9944 13.5149L11.0034 13.5104Z" fill="#6F4E4E"/>
</svg>
